<svg width="176" height="51" viewBox="0 0 176 51" fill="none" xmlns="http://www.w3.org/2000/svg">
<g clip-path="url(#clip0_111_2709)">
<path d="M0 6.8C0 3.04446 3.11454 0 6.95652 0H169.043C172.885 0 176 3.04446 176 6.8V44.2C176 47.9555 172.885 51 169.043 51H6.95652C3.11454 51 0 47.9555 0 44.2V6.8Z" fill="black"/>
<path fill-rule="evenodd" clip-rule="evenodd" d="M0 44.2V6.8C0 3.04446 3.11454 0 6.95652 0H169.043C172.885 0 176 3.04446 176 6.8V44.2C176 47.9555 172.885 51 169.043 51H6.95652C3.11454 51 0 47.9555 0 44.2ZM1.04348 44.2V6.8C1.04348 3.60779 3.69084 1.02 6.95652 1.02H169.043C172.309 1.02 174.956 3.60779 174.956 6.8V44.2C174.956 47.3922 172.309 49.98 169.043 49.98H6.95652C3.69084 49.98 1.04348 47.3922 1.04348 44.2Z" fill="black" fill-opacity="0.1"/>
<path d="M39.7721 26.5386C39.7541 23.5495 41.1396 21.2967 43.9374 19.6356C42.3726 17.4442 40.0052 16.239 36.8846 16.0067C33.9298 15.7788 30.6971 17.6897 29.5134 17.6897C28.2624 17.6897 25.4018 16.0856 23.151 16.0856C18.5059 16.1557 13.5693 19.7058 13.5693 26.9286C13.5693 29.0631 13.9684 31.2676 14.7665 33.5379C15.8336 36.527 19.6806 43.8507 23.6935 43.7323C25.7919 43.6841 27.276 42.2772 30.0066 42.2772C32.6564 42.2772 34.0284 43.7323 36.3689 43.7323C40.4177 43.6754 43.8971 37.0179 44.9104 34.02C39.4806 31.5174 39.7721 26.692 39.7721 26.5386ZM35.0597 13.171C37.3329 10.5325 37.1267 8.13075 37.0594 7.26733C35.0507 7.38129 32.7282 8.60409 31.4055 10.1074C29.9483 11.7203 29.0919 13.7145 29.2757 15.9628C31.4458 16.125 33.4276 15.0337 35.0597 13.171Z" fill="white"/>
<path d="M55.0981 15.284H56.2122C57.2883 15.284 57.9187 15.7568 57.9187 16.5537V16.5643C57.9187 17.3027 57.2557 17.7862 56.2448 17.7862C55.2122 17.7862 54.5546 17.3877 54.4676 16.6812L54.4622 16.6387H53.272L53.2774 16.7024C53.3589 17.9668 54.5111 18.8274 56.2448 18.8274C57.9241 18.8274 59.1633 17.8818 59.1633 16.6174V16.6068C59.1633 15.5762 58.5165 14.8484 57.4676 14.7209V14.6784C58.3372 14.4818 58.9241 13.7699 58.9241 12.9199V12.9093C58.9241 11.7246 57.8481 10.9065 56.272 10.9065C54.6307 10.9065 53.56 11.6981 53.4785 12.9943L53.4731 13.0687H54.6415L54.647 12.9943C54.7394 12.3356 55.31 11.9477 56.2339 11.9477C57.1741 11.9477 57.7176 12.3568 57.7176 13.0368V13.0474C57.7176 13.7806 57.1144 14.2852 56.1796 14.2852H55.0981V15.284Z" fill="white"/>
<path d="M63.0996 18.8009C63.8605 18.8009 64.5181 18.4184 64.8496 17.8181H64.8768V18.6999H66.0507V14.8484C66.0507 13.7274 65.1648 13.0049 63.7681 13.0049C62.3605 13.0049 61.5072 13.7434 61.4257 14.7049L61.4202 14.7634H62.5289L62.5398 14.7156C62.6376 14.2693 63.0561 13.9559 63.7355 13.9559C64.4637 13.9559 64.8768 14.3277 64.8768 14.944V15.3637L63.317 15.454C61.9637 15.5337 61.192 16.1287 61.192 17.1009V17.1115C61.192 18.1156 61.9583 18.8009 63.0996 18.8009ZM62.3768 17.0849V17.0743C62.3768 16.6015 62.7681 16.2987 63.4746 16.2562L64.8768 16.1712V16.6068C64.8768 17.3346 64.2463 17.8818 63.4202 17.8818C62.7898 17.8818 62.3768 17.5737 62.3768 17.0849Z" fill="white"/>
<path d="M72.3022 14.0249V13.1112H68.5141V18.6999H69.6881V14.0249H72.3022Z" fill="white"/>
<path d="M74.5102 20.5593H75.6841V17.7596H75.7113C76.0483 18.4077 76.7059 18.8115 77.5157 18.8115C78.9505 18.8115 79.8907 17.6906 79.8907 15.9109V15.9056C79.8907 14.1206 78.9559 13.0049 77.4994 13.0049C76.6841 13.0049 76.0537 13.4087 75.7113 14.0727H75.6841V13.1112H74.5102V20.5593ZM77.195 17.8234C76.3091 17.8234 75.6787 17.069 75.6787 15.9109V15.9056C75.6787 14.7421 76.3037 13.9877 77.195 13.9877C78.1189 13.9877 78.695 14.7156 78.695 15.9056V15.9109C78.695 17.0902 78.1189 17.8234 77.195 17.8234Z" fill="white"/>
<path d="M82.6476 20.5646C83.7672 20.5646 84.365 20.1184 84.7889 18.9602L86.9194 13.1112H85.6802L84.24 17.6587H84.202L82.7618 13.1112H81.49L83.5715 18.7052L83.4737 18.9709C83.2781 19.5127 82.9737 19.6562 82.4194 19.6562C82.2618 19.6562 82.1259 19.6349 82.0335 19.6137V20.5115C82.1748 20.5381 82.4194 20.5646 82.6476 20.5646Z" fill="white"/>
<path d="M90.9535 18.8115C92.3557 18.8115 93.285 18.1156 93.285 17.0743V17.0637C93.285 16.4102 92.872 15.964 92.1165 15.8152V15.7727C92.7307 15.6346 93.1274 15.1618 93.1274 14.5615V14.5509C93.1274 13.5946 92.3231 13.0049 91.0078 13.0049C89.7198 13.0049 88.8774 13.5999 88.7415 14.5934L88.7361 14.6359H89.8557L89.8611 14.5987C89.9481 14.1737 90.3774 13.9134 90.9915 13.9134C91.6111 13.9134 91.9807 14.1949 91.9807 14.6731V14.6837C91.9807 15.1831 91.6274 15.4381 90.9372 15.4381H90.1165V16.2721H90.9426C91.7361 16.2721 92.1165 16.5271 92.1165 17.0637V17.0743C92.1165 17.5843 91.6709 17.8977 90.9481 17.8977C90.3013 17.8977 89.8774 17.6534 89.747 17.2018L89.7307 17.1487H88.5785L88.5839 17.1965C88.6981 18.1846 89.6165 18.8115 90.9535 18.8115Z" fill="white"/>
<path d="M95.542 18.6999H96.6996L99.3246 14.774H99.3735V18.6999H100.542V13.1112H99.3844L96.7594 17.0212H96.705V13.1112H95.542V18.6999Z" fill="white"/>
<path d="M107.375 13.1112H102.62V14.0249H104.408V18.6999H105.587V14.0249H107.375V13.1112Z" fill="white"/>
<path d="M111.79 18.8115C113.175 18.8115 114.061 18.004 114.241 17.1168L114.257 17.0584H113.137L113.121 17.1009C112.974 17.5206 112.512 17.8712 111.817 17.8712C110.882 17.8712 110.29 17.2549 110.268 16.1977H114.317V15.8099C114.317 14.1312 113.333 13.0049 111.73 13.0049C110.127 13.0049 109.094 14.1737 109.094 15.9215V15.9268C109.094 17.6906 110.11 18.8115 111.79 18.8115ZM111.735 13.9452C112.502 13.9452 113.061 14.4181 113.154 15.3849H110.284C110.393 14.4499 110.974 13.9452 111.735 13.9452Z" fill="white"/>
<path d="M120.037 18.6999H122.668C123.907 18.6999 124.678 18.0731 124.678 17.0956V17.0849C124.678 16.3996 124.189 15.9002 123.45 15.8046V15.7621C123.999 15.6612 124.423 15.1352 124.423 14.5562V14.5456C124.423 13.6584 123.749 13.1112 122.635 13.1112H120.037V18.6999ZM121.2 15.4168V13.9612H122.39C122.956 13.9612 123.26 14.2109 123.26 14.6731V14.6837C123.26 15.1777 122.934 15.4168 122.271 15.4168H121.2ZM121.2 17.8499V16.2509H122.314C123.086 16.2509 123.472 16.5006 123.472 17.0371V17.0477C123.472 17.579 123.113 17.8499 122.45 17.8499H121.2Z" fill="white"/>
<path d="M64.2623 36.9063H61.9594L60.698 33.0136H56.3133L55.1117 36.9063H52.8696L57.2138 23.654H59.8969L64.2623 36.9063ZM60.3177 31.3805L59.1769 27.92C59.0563 27.5665 58.8301 26.734 58.4965 25.4235H58.4559C58.3231 25.9872 58.1091 26.8197 57.8151 27.92L56.6946 31.3805H60.3177Z" fill="white"/>
<path d="M75.4339 32.0109C75.4339 33.6361 74.9867 34.9207 74.0923 35.8637C73.2913 36.7032 72.2965 37.1224 71.1091 37.1224C69.8273 37.1224 68.9066 36.6703 68.3458 35.7661H68.3052V40.8H66.1433V30.4963C66.1433 29.4746 66.1159 28.426 66.0632 27.3505H67.9645L68.0852 28.8651H68.1258C68.8467 27.7239 69.9409 27.1543 71.4092 27.1543C72.5571 27.1543 73.5154 27.5995 74.282 28.4907C75.0506 29.383 75.4339 30.556 75.4339 32.0109ZM73.2314 32.0886C73.2314 31.1585 73.0185 30.3917 72.5906 29.7883C72.1231 29.1589 71.4954 28.8442 70.7085 28.8442C70.1751 28.8442 69.6904 29.0195 69.2574 29.365C68.8234 29.7136 68.5395 30.1687 68.4066 30.7323C68.3397 30.9952 68.3063 31.2103 68.3063 31.3796V32.9729C68.3063 33.6679 68.5233 34.2545 68.9573 34.7335C69.3913 35.2125 69.9551 35.4514 70.6487 35.4514C71.463 35.4514 72.0967 35.1427 72.55 34.5273C73.0043 33.9109 73.2314 33.0983 73.2314 32.0886Z" fill="white"/>
<path d="M86.6262 32.0109C86.6262 33.6361 86.179 34.9207 85.2836 35.8637C84.4835 36.7032 83.4888 37.1224 82.3013 37.1224C81.0196 37.1224 80.0988 36.6703 79.5391 35.7661H79.4985V40.8H77.3366V30.4963C77.3366 29.4746 77.3092 28.426 77.2565 27.3505H79.1578L79.2785 28.8651H79.319C80.039 27.7239 81.1332 27.1543 82.6025 27.1543C83.7494 27.1543 84.7076 27.5995 85.4763 28.4907C86.2419 29.383 86.6262 30.556 86.6262 32.0109ZM84.4237 32.0886C84.4237 31.1585 84.2097 30.3917 83.7818 29.7883C83.3143 29.1589 82.6887 28.8442 81.9008 28.8442C81.3664 28.8442 80.8827 29.0195 80.4487 29.365C80.0147 29.7136 79.7318 30.1687 79.5989 30.7323C79.533 30.9952 79.4985 31.2103 79.4985 31.3796V32.9729C79.4985 33.6679 79.7155 34.2545 80.1475 34.7335C80.5815 35.2115 81.1453 35.4514 81.841 35.4514C82.6552 35.4514 83.289 35.1427 83.7423 34.5273C84.1966 33.9109 84.4237 33.0983 84.4237 32.0886Z" fill="white"/>
<path d="M99.1396 33.1901C99.1396 34.3173 98.741 35.2345 97.941 35.9425C97.0618 36.7162 95.8379 37.1026 94.2651 37.1026C92.813 37.1026 91.6489 36.8278 90.7677 36.2771L91.2686 34.5075C92.2178 35.0711 93.2592 35.354 94.3939 35.354C95.2081 35.354 95.8419 35.1727 96.2972 34.8122C96.7505 34.4517 96.9766 33.9678 96.9766 33.3643C96.9766 32.8266 96.79 32.3735 96.4159 32.006C96.0437 31.6386 95.4221 31.297 94.5541 30.9813C92.1914 30.116 91.0111 28.8483 91.0111 27.1813C91.0111 26.0919 91.4248 25.1987 92.2532 24.5036C93.0787 23.8075 94.1799 23.46 95.557 23.46C96.785 23.46 97.8051 23.6701 98.6194 24.0893L98.0789 25.82C97.3183 25.4137 96.4584 25.2106 95.4961 25.2106C94.7356 25.2106 94.1414 25.3948 93.7155 25.7613C93.3555 26.0889 93.175 26.4882 93.175 26.9612C93.175 27.485 93.3809 27.9182 93.7946 28.2588C94.1546 28.5735 94.8086 28.914 95.7578 29.2815C96.9188 29.7406 97.7716 30.2773 98.3202 30.8927C98.8668 31.5061 99.1396 32.2739 99.1396 33.1901Z" fill="white"/>
<path d="M106.287 28.944H103.904V33.5835C103.904 34.7635 104.324 35.3531 105.166 35.3531C105.552 35.3531 105.872 35.3202 106.126 35.2545L106.186 36.8667C105.76 37.023 105.199 37.1017 104.504 37.1017C103.651 37.1017 102.983 36.8458 102.502 36.3349C102.022 35.8231 101.781 34.9647 101.781 33.7588V28.942H100.361V27.3487H101.781V25.5991L103.904 24.9697V27.3487H106.287V28.944Z" fill="white"/>
<path d="M117.039 32.0498C117.039 33.5186 116.611 34.7245 115.757 35.6675C114.862 36.6385 113.673 37.1224 112.192 37.1224C110.764 37.1224 109.627 36.6574 108.78 35.7273C107.932 34.7972 107.508 33.6231 107.508 32.2081C107.508 30.7273 107.944 29.5144 108.819 28.5714C109.692 27.6274 110.871 27.1553 112.352 27.1553C113.78 27.1553 114.929 27.6204 115.796 28.5515C116.625 29.4547 117.039 30.6208 117.039 32.0498ZM114.796 32.1185C114.796 31.2372 114.604 30.4814 114.216 29.851C113.763 29.0882 113.115 28.7078 112.275 28.7078C111.406 28.7078 110.746 29.0892 110.293 29.851C109.904 30.4823 109.713 31.2501 109.713 32.1583C109.713 33.0396 109.904 33.7954 110.293 34.4248C110.76 35.1876 111.413 35.568 112.256 35.568C113.081 35.568 113.729 35.1796 114.197 34.4049C114.595 33.7626 114.796 32.9988 114.796 32.1185Z" fill="white"/>
<path d="M124.066 29.2177C123.852 29.1788 123.624 29.1589 123.385 29.1589C122.624 29.1589 122.036 29.4407 121.622 30.0053C121.262 30.5033 121.082 31.1326 121.082 31.8924V36.9063H118.921L118.941 30.3599C118.941 29.2585 118.914 28.2557 118.86 27.3515H120.743L120.822 29.1798H120.882C121.11 28.5515 121.47 28.0456 121.963 27.6662C122.445 27.3246 122.965 27.1543 123.526 27.1543C123.725 27.1543 123.906 27.1683 124.066 27.1932V29.2177Z" fill="white"/>
<path d="M133.734 31.6764C133.734 32.0568 133.709 32.3774 133.655 32.6393H127.17C127.195 33.5834 127.508 34.3053 128.111 34.8032C128.657 35.2484 129.364 35.4714 130.232 35.4714C131.192 35.4714 132.068 35.3211 132.856 35.0193L133.195 36.4931C132.274 36.8875 131.187 37.0836 129.933 37.0836C128.424 37.0836 127.24 36.6475 126.378 35.7761C125.518 34.9048 125.087 33.7347 125.087 32.2669C125.087 30.826 125.487 29.626 126.289 28.669C127.129 27.6473 128.264 27.1365 129.692 27.1365C131.094 27.1365 132.156 27.6473 132.877 28.669C133.447 29.4806 133.734 30.4844 133.734 31.6764ZM131.673 31.1257C131.687 30.4963 131.546 29.9526 131.253 29.4936C130.879 28.903 130.304 28.6083 129.53 28.6083C128.824 28.6083 128.249 28.8961 127.809 29.4736C127.449 29.9327 127.236 30.4834 127.17 31.1247H131.673V31.1257Z" fill="white"/>
</g>
<defs>
<clipPath id="clip0_111_2709">
<rect width="176" height="51" fill="white"/>
</clipPath>
</defs>
</svg>
