<svg width="176" height="51" viewBox="0 0 176 51" fill="none" xmlns="http://www.w3.org/2000/svg">
<g clip-path="url(#clip0_111_2708)">
<path d="M0 6.8C0 3.04446 3.11454 0 6.95652 0H169.043C172.885 0 176 3.04446 176 6.8V44.2C176 47.9555 172.885 51 169.043 51H6.95652C3.11454 51 0 47.9555 0 44.2V6.8Z" fill="black"/>
<path fill-rule="evenodd" clip-rule="evenodd" d="M0 44.2V6.8C0 3.04446 3.11454 0 6.95652 0H169.043C172.885 0 176 3.04446 176 6.8V44.2C176 47.9555 172.885 51 169.043 51H6.95652C3.11454 51 0 47.9555 0 44.2ZM1.04348 44.2V6.8C1.04348 3.60779 3.69084 1.02 6.95652 1.02H169.043C172.309 1.02 174.956 3.60779 174.956 6.8V44.2C174.956 47.3922 172.309 49.98 169.043 49.98H6.95652C3.69084 49.98 1.04348 47.3922 1.04348 44.2Z" fill="black" fill-opacity="0.1"/>
<path d="M89.1773 27.7063C86.0453 27.7063 83.4575 30.0973 83.4575 33.3755C83.4575 36.627 86.0181 39.0447 89.1776 39.0447C92.3368 39.0447 94.8972 36.6538 94.8972 33.3755C94.8972 30.0973 92.3368 27.7063 89.1773 27.7063ZM89.1773 36.7888C87.461 36.7888 85.9639 35.3643 85.9639 33.3502C85.9639 31.3082 87.4622 29.9116 89.1773 29.9116C90.8925 29.9116 92.3908 31.3082 92.3908 33.3502C92.3908 35.3643 90.8925 36.7888 89.1773 36.7888ZM76.73 27.7063C73.5705 27.7063 71.0098 30.0973 71.0098 33.3755C71.0098 36.627 73.5705 39.0447 76.73 39.0447C79.8891 39.0447 82.4498 36.6538 82.4498 33.3755C82.4498 30.0973 79.8891 27.7063 76.7297 27.7063H76.73ZM76.73 36.7888C75.0133 36.7888 73.5165 35.3643 73.5165 33.3502C73.5165 31.3082 75.0148 29.9116 76.73 29.9116C78.4463 29.9116 79.9434 31.3082 79.9434 33.3502C79.9434 35.3643 78.4719 36.7888 76.73 36.7888ZM61.9399 29.453V31.8439H67.7138C67.5497 33.1872 67.0881 34.1813 66.4066 34.8536C65.5626 35.6862 64.2551 36.6002 61.9399 36.6002C58.3713 36.6002 55.6213 33.7524 55.6213 30.2323C55.6213 26.7122 58.3728 23.8106 61.9399 23.8106C63.8731 23.8106 65.2632 24.5631 66.298 25.5307L68.0132 23.8373C66.5691 22.4676 64.636 21.4199 61.9399 21.4199C57.0638 21.4199 52.978 25.3689 52.978 30.1788C52.978 34.9889 57.0638 38.9379 61.9399 38.9379C64.5817 38.9379 66.5435 38.0786 68.1229 36.4655C69.7298 34.8804 70.2201 32.6497 70.2201 30.8498C70.2201 30.2859 70.1661 29.7751 70.0835 29.345L61.9399 29.453ZM122.461 31.3067C121.998 30.0437 120.528 27.7063 117.585 27.7063C114.643 27.7063 112.219 29.9905 112.219 33.3755C112.219 36.5455 114.643 39.0447 117.858 39.0447C120.472 39.0447 121.971 37.4596 122.597 36.5455L120.664 35.256C120.009 36.1969 119.138 36.8141 117.858 36.8141C116.578 36.8141 115.679 36.2501 115.106 35.0942L122.705 31.951L122.461 31.3067ZM114.726 33.2152C114.672 31.0381 116.442 29.9102 117.694 29.9102C118.702 29.9102 119.519 30.3938 119.818 31.1196L114.726 33.2152ZM108.543 38.669H111.049V22.0639H108.543V38.669ZM104.458 28.9693H104.377C103.805 28.2971 102.743 27.7063 101.38 27.7063C98.5198 27.7063 95.9323 30.2056 95.9323 33.3755C95.9323 36.5455 98.5469 39.0182 101.38 39.0182C102.741 39.0182 103.804 38.4272 104.377 37.7282H104.458V38.5343C104.458 40.7114 103.286 41.8658 101.407 41.8658C99.8815 41.8658 98.9278 40.7646 98.5469 39.8505L96.3686 40.7646C96.9943 42.2694 98.6567 44.1232 101.407 44.1232C104.348 44.1232 106.827 42.4033 106.827 38.2389V28.0553H104.458V28.9693ZM101.598 36.7888C99.8815 36.7888 98.4387 35.3643 98.4387 33.377C98.4387 31.3897 99.8827 29.9381 101.598 29.9381C103.287 29.9381 104.649 31.3897 104.649 33.377C104.648 35.3375 103.286 36.7888 101.598 36.7888ZM134.146 22.0642H128.154V38.669H130.66V32.3811H134.146C136.925 32.3811 139.648 30.3924 139.648 27.2227C139.648 24.0527 136.925 22.0639 134.146 22.0639V22.0642ZM134.227 30.072H130.686V24.3746H134.227C136.079 24.3746 137.169 25.9061 137.169 27.2224C137.143 28.5121 136.081 30.072 134.227 30.072ZM149.645 27.6796C147.847 27.6796 145.968 28.4589 145.205 30.2323L147.412 31.1464C147.903 30.2323 148.774 29.9369 149.7 29.9369C151.008 29.9369 152.315 30.716 152.342 32.0858V32.2476C151.879 31.979 150.926 31.6021 149.727 31.6021C147.331 31.6021 144.906 32.9186 144.906 35.3375C144.906 37.5679 146.867 38.9915 149.046 38.9915C150.735 38.9915 151.661 38.2389 152.232 37.3528H152.314V38.6426H154.737V32.2741C154.71 29.3459 152.505 27.6793 149.645 27.6793V27.6796ZM149.345 36.762C148.528 36.762 147.384 36.3584 147.384 35.3655C147.384 34.0757 148.799 33.5921 150.025 33.5921C151.115 33.5921 151.632 33.8339 152.314 34.156C152.123 35.6876 150.788 36.762 149.345 36.762ZM163.481 28.0567L160.621 35.2304H160.54L157.572 28.0564H154.876L159.342 38.1051L156.808 43.721H159.423L166.259 28.0564H163.481L163.481 28.0567ZM141.038 38.669H143.544V22.0639H141.038V38.669Z" fill="white"/>
<path d="M60.5511 14.2813V16.747H59.509V15.2999H54.7174V16.747H53.6753V14.2813H54.4544C54.7141 13.9259 54.9057 13.415 55.029 12.7486C55.1524 12.0758 55.2141 11.346 55.2141 10.559V8.48362H59.7817V14.2813H60.5511ZM58.6909 14.2813V9.50226H56.2951V10.7399C56.2951 11.4507 56.2367 12.1107 56.1198 12.72C56.0094 13.3293 55.8406 13.8497 55.6134 14.2813H58.6909Z" fill="white"/>
<path d="M64.9731 15.4523C64.2978 15.4523 63.6843 15.2968 63.1324 14.9858C62.5805 14.6684 62.1455 14.2369 61.8273 13.6911C61.5157 13.1452 61.3598 12.5455 61.3598 11.8918C61.3598 11.2381 61.5157 10.6415 61.8273 10.102C62.1455 9.55621 62.5805 9.12463 63.1324 8.8073C63.6843 8.48997 64.2978 8.3313 64.9731 8.3313C65.6483 8.3313 66.2586 8.48997 66.804 8.8073C67.3559 9.12463 67.7909 9.55621 68.1091 10.102C68.4272 10.6415 68.5863 11.2381 68.5863 11.8918C68.5863 12.5455 68.4272 13.1452 68.1091 13.6911C67.7974 14.2369 67.3656 14.6684 66.8138 14.9858C66.2619 15.2968 65.6483 15.4523 64.9731 15.4523ZM64.9731 14.4336C65.434 14.4336 65.8561 14.3257 66.2391 14.1099C66.6222 13.8942 66.9241 13.5959 67.1449 13.2151C67.3656 12.8279 67.476 12.3868 67.476 11.8918C67.476 11.3967 67.3656 10.9588 67.1449 10.578C66.9241 10.1909 66.6222 9.88941 66.2391 9.67362C65.8561 9.45783 65.434 9.34994 64.9731 9.34994C64.5121 9.34994 64.09 9.45783 63.707 9.67362C63.3239 9.88941 63.0187 10.1909 62.7915 10.578C62.5707 10.9588 62.4604 11.3967 62.4604 11.8918C62.4604 12.3868 62.5707 12.8279 62.7915 13.2151C63.0187 13.5959 63.3239 13.8942 63.707 14.1099C64.09 14.3257 64.5121 14.4336 64.9731 14.4336Z" fill="white"/>
<path d="M73.0295 15.4523C72.3542 15.4523 71.7374 15.2968 71.179 14.9858C70.6206 14.6748 70.1824 14.2464 69.8642 13.7006C69.5461 13.1548 69.387 12.5518 69.387 11.8918C69.387 11.2317 69.5461 10.6288 69.8642 10.083C70.1824 9.53717 70.6206 9.10877 71.179 8.79778C71.7374 8.48679 72.3542 8.3313 73.0295 8.3313C73.5554 8.3313 74.0326 8.4265 74.4611 8.6169C74.8961 8.8073 75.2792 9.08338 75.6103 9.44514L74.8312 10.1782C74.591 9.89893 74.3248 9.69266 74.0326 9.55938C73.7404 9.41975 73.406 9.34994 73.0295 9.34994C72.562 9.34994 72.1335 9.45466 71.7439 9.6641C71.3608 9.87354 71.0557 10.1718 70.8284 10.559C70.6012 10.9398 70.4875 11.384 70.4875 11.8918C70.4875 12.3995 70.6012 12.847 70.8284 13.2341C71.0557 13.6149 71.3608 13.91 71.7439 14.1195C72.1335 14.3289 72.562 14.4336 73.0295 14.4336C73.8086 14.4336 74.4708 14.1163 75.0162 13.4816L75.8051 14.2242C75.4675 14.6113 75.0617 14.9128 74.5877 15.1286C74.1137 15.3444 73.5943 15.4523 73.0295 15.4523Z" fill="white"/>
<path d="M78.4351 9.50226H76.4873V8.48362H81.4737V9.50226H79.5259V15.2999H78.4351V9.50226Z" fill="white"/>
<path d="M83.2797 15.4523C83.0394 15.4523 82.8349 15.411 82.6661 15.3285V14.2908C82.8804 14.4051 83.0751 14.4622 83.2504 14.4622C83.4257 14.4622 83.5653 14.4304 83.6692 14.367C83.7731 14.2972 83.8673 14.1702 83.9517 13.9862L84.1951 13.4911L81.8772 8.48362H83.0946L84.721 12.2631H84.7795L86.4157 8.48362H87.633L84.9645 14.2147C84.7697 14.6399 84.5328 14.954 84.2536 15.1571C83.9809 15.3539 83.6562 15.4523 83.2797 15.4523Z" fill="white"/>
<path d="M88.5787 8.48362H93.7696V15.2999H92.6788V9.50226H89.6694V15.2999H88.5787V8.48362Z" fill="white"/>
<path d="M95.3599 8.48362H96.4507V11.3111H99.6841V8.48362H100.765V15.2999H99.6841V12.3202H96.4507V15.2999H95.3599V8.48362Z" fill="white"/>
<path d="M105.527 15.4523C104.852 15.4523 104.239 15.2968 103.687 14.9858C103.135 14.6684 102.7 14.2369 102.382 13.6911C102.07 13.1452 101.914 12.5455 101.914 11.8918C101.914 11.2381 102.07 10.6415 102.382 10.102C102.7 9.55621 103.135 9.12463 103.687 8.8073C104.239 8.48997 104.852 8.3313 105.527 8.3313C106.203 8.3313 106.813 8.48997 107.358 8.8073C107.91 9.12463 108.345 9.55621 108.663 10.102C108.982 10.6415 109.141 11.2381 109.141 11.8918C109.141 12.5455 108.982 13.1452 108.663 13.6911C108.352 14.2369 107.92 14.6684 107.368 14.9858C106.816 15.2968 106.203 15.4523 105.527 15.4523ZM105.527 14.4336C105.988 14.4336 106.41 14.3257 106.793 14.1099C107.177 13.8942 107.478 13.5959 107.699 13.2151C107.92 12.8279 108.03 12.3868 108.03 11.8918C108.03 11.3967 107.92 10.9588 107.699 10.578C107.478 10.1909 107.177 9.88941 106.793 9.67362C106.41 9.45783 105.988 9.34994 105.527 9.34994C105.066 9.34994 104.644 9.45783 104.261 9.67362C103.878 9.88941 103.573 10.1909 103.346 10.578C103.125 10.9588 103.015 11.3967 103.015 11.8918C103.015 12.3868 103.125 12.8279 103.346 13.2151C103.573 13.5959 103.878 13.8942 104.261 14.1099C104.644 14.3257 105.066 14.4336 105.527 14.4336Z" fill="white"/>
<path d="M112.67 8.48362H115.29C115.66 8.48362 116 8.56295 116.312 8.72162C116.63 8.88029 116.883 9.09925 117.072 9.3785C117.26 9.65775 117.354 9.96557 117.354 10.3019C117.354 10.6383 117.267 10.9303 117.091 11.1778C116.922 11.4253 116.698 11.6125 116.419 11.7395V11.7966C116.77 11.9172 117.052 12.1171 117.267 12.3963C117.487 12.6756 117.598 13.0024 117.598 13.3769C117.598 13.7514 117.497 14.0846 117.296 14.3765C117.101 14.6684 116.835 14.8969 116.497 15.0619C116.166 15.2206 115.802 15.2999 115.406 15.2999H112.67V8.48362ZM115.241 11.3396C115.552 11.3396 115.802 11.2444 115.991 11.054C116.186 10.8636 116.283 10.6447 116.283 10.3971C116.283 10.1496 116.189 9.93383 116 9.74978C115.819 9.55938 115.578 9.46418 115.28 9.46418H113.76V11.3396H115.241ZM115.406 14.3099C115.738 14.3099 116 14.2083 116.195 14.0052C116.397 13.8021 116.497 13.5673 116.497 13.3007C116.497 13.0278 116.393 12.793 116.186 12.5963C115.984 12.3932 115.712 12.2916 115.367 12.2916H113.76V14.3099H115.406Z" fill="white"/>
<path d="M37.1106 30.968C41.2778 28.7107 44.4373 26.9908 44.7096 26.8572C45.5804 26.4 46.4802 25.1906 44.7096 24.2512C44.1379 23.9558 41.0598 22.2892 37.1106 20.1404L31.6362 25.5942L37.1103 30.968H37.1106Z" fill="#FFD900"/>
<path d="M31.6359 25.5942L14.2041 42.9252C14.613 42.9787 15.0749 42.8716 15.6198 42.5762C16.7632 41.959 28.8841 35.429 37.1105 30.9692L31.6359 25.5942Z" fill="#F43249"/>
<path d="M31.6358 25.5942L37.1099 20.1668C37.1099 20.1668 16.8458 9.25763 15.6195 8.61393C15.1581 8.34327 14.6404 8.26325 14.1772 8.34327L31.6358 25.5939V25.5942Z" fill="#00EE76"/>
<path d="M31.636 25.5943L14.1771 8.34375C13.4685 8.50526 12.8696 9.12279 12.8696 10.3852V40.8829C12.8696 42.0391 13.3331 42.8717 14.2039 42.9517L31.6357 25.594L31.636 25.5943Z" fill="#00D3FF"/>
</g>
<defs>
<clipPath id="clip0_111_2708">
<rect width="176" height="51" fill="white"/>
</clipPath>
</defs>
</svg>
